<svg xmlns="http://www.w3.org/2000/svg" viewBox="0 0 387.07 270.63"><defs><style>.cls-1{fill:#c7c7c6;}.cls-2{fill:#fff;}</style></defs><g id="Capa_2" data-name="Capa 2"><g id="Capa_1-2" data-name="Capa 1"><path class="cls-1" d="M173.38,52.42c.27-.6.76-.68,1.15-.87,6.08-3,12.17-6,18.24-9a1.85,1.85,0,0,1,1.85,0q14.56,7.13,29.15,14.2c3.21,1.55,6.44,3.06,9.64,4.61.74.36.92.19.92-.59,0-6.67,0-13.33,0-20,0-.89-.5-1.24-1.17-1.56q-6.49-3.12-13-6.27c-5.49-2.67-11-5.38-16.45-8.06-2.94-1.44-5.91-2.85-8.84-4.32a2.33,2.33,0,0,0-2.34,0q-9.27,4.59-18.56,9.13c-6.49,3.17-13,6.35-19.49,9.48a2.11,2.11,0,0,0-1.41,2.18q.06,14.05,0,28.12a1.73,1.73,0,0,0,1.14,1.8c8,3.89,15.9,7.83,23.85,11.76l18,8.86c5.66,2.77,11.32,5.51,17,8.27l1.36.7-9.31,4.55c-3.51,1.71-7,3.4-10.52,5.15a2,2,0,0,1-2,0c-7.23-3.56-14.49-7.08-21.73-10.64-7.72-3.78-15.42-7.6-23.14-11.38-3.84-1.88-7.69-3.75-11.56-5.56a2,2,0,0,1-1.34-2.09q.06-25.62,0-51.24a1.71,1.71,0,0,1,1.12-1.8c7.56-3.66,15.1-7.37,22.65-11.06L187.87,2.52c1.31-.64,2.66-1.2,3.89-1.95a3.88,3.88,0,0,1,4.1,0c5.92,2.93,11.86,5.82,17.78,8.73l18.34,9c6.57,3.21,13.14,6.42,19.74,9.58a1.3,1.3,0,0,1,.86,1.41q0,30.38,0,60.74c0,1.36-.55.93-1.24.59q-10.72-5.31-21.48-10.6l-23.5-11.51q-13.55-6.61-27.12-13.2C177.29,54.4,175.34,53.4,173.38,52.42Z"/><path class="cls-1" d="M134.83,115.11c0-5,0-9.91,0-14.87,0-1,.18-1.16,1.09-.7q8.28,4.09,16.59,8.11c.67.32.59.83.59,1.35,0,3.17,0,6.34,0,9.5a1.57,1.57,0,0,0,1,1.62l12.48,6q13.19,6.36,26.36,12.71a1.89,1.89,0,0,0,1.87-.05q9.39-4.65,18.8-9.26,9.87-4.8,19.76-9.53a1.53,1.53,0,0,0,1-1.61c0-5.08,0-10.16,0-15.24,0-1.42.09-1.51,1.39-.88,4.19,2,8.36,4.15,12.54,6.21,1.19.59,2.39,1.16,3.61,1.7a1.36,1.36,0,0,1,.92,1.43q0,9.06,0,18.12a1.52,1.52,0,0,1-1,1.54L231.1,141.36l-16.7,8.12c-6.49,3.16-13,6.31-19.46,9.51a2.52,2.52,0,0,1-2.47,0c-2.9-1.42-5.81-2.82-8.72-4.23l-33.53-16.26c-4.79-2.32-9.58-4.64-14.4-6.9a1.47,1.47,0,0,1-1-1.59C134.84,125,134.83,120.07,134.83,115.11Z"/><path class="cls-2" d="M83.26,161.13h80.23a6.84,6.84,0,0,1,3.21.77c4.81,2.44,9.67,4.79,14.53,7.16,3.8,1.85,7.63,3.65,11.43,5.53a2.42,2.42,0,0,0,2.35,0q11-5.24,22.08-10.45c1.76-.83,3.53-1.66,5.3-2.47a5.69,5.69,0,0,1,2.42-.52H384.52a10.4,10.4,0,0,1,1.25,0,1.44,1.44,0,0,1,0,2.86c-.5,0-1,0-1.5,0Q305,164,225.7,164a10.49,10.49,0,0,0-4.35,1.38c-4.42,2-8.8,4.12-13.19,6.19s-8.59,4-12.85,6.09a3.12,3.12,0,0,1-3.05,0c-7-3.45-14-6.85-21.06-10.28l-5.59-2.75a4.92,4.92,0,0,0-2.28-.55c-1.84,0-3.67.08-5.5.08H3.24a19.07,19.07,0,0,1-2,0C.6,164.05,0,163.85,0,163s.14-1.52,1-1.75a5.08,5.08,0,0,1,1.23-.12Z"/><path class="cls-2" d="M214.82,118.88l-.08,0h-.1c-.42,0-1-.22-1,.53l0,0c-.82,0-1.76-.14-2,1h0c-.35,0-.73-.08-.77.44a.26.26,0,0,1-.21,0c-.62.06-1.46-.64-1.83.12s-.92.76-1.41,1.07c-1,.6-2.17.6-3.12,1.13s-1.78,1.51-3.11,1.21c-.29-.06-.51.25-.69.48-1.39,1.9-3.68,2.26-5.61,3.17-1.69.8-3.19-.41-4.61-1.19a81.08,81.08,0,0,0-8.46-4.19c-1-.41-2.28-.58-2.68-2a.7.7,0,0,0-1.09-.13c-.42.38-1,.17-1.08-.08-.15-1.15-1.29-.94-1.77-1.46-.71-.78-1.53-.35-2.26-.57-1.4-.42-2.1-2.3-3.89-1.82,0,0-.06,0-.09-.07-1.48-1.27-3.4-1.71-5.07-2.6a2.24,2.24,0,0,1-1.3-1.88c-.17-1,.55-2,.07-3-.16-.33.25-.54.54-.28.92.83,2.22.7,3.23,1.44a12.73,12.73,0,0,0,2.8,1.56,73.59,73.59,0,0,1,6.83,3.4c1.69.89,3.41,1.76,5.07,2.68a49.85,49.85,0,0,0,5,2.24,45.41,45.41,0,0,1,6.45,3.27,2,2,0,0,0,2.33,0c1.59-1.13,3.54-1.53,5.19-2.59,1.34-.86,2.93-1.3,4.32-2.15a11.16,11.16,0,0,1,2-1,5.7,5.7,0,0,0,2.16-1.33,5.14,5.14,0,0,0,1.77-.5c2-1.47,4.43-2,6.49-3.3a7.59,7.59,0,0,1,2.66-1.19c1.78-.34,2.56-1.53,2.56-3.39q0-6,0-12c0-.7.3-1.58-.26-2a10.38,10.38,0,0,0-2.6-1.76c-2.26-.9-4.53-1.69-6.36-3.38a1.47,1.47,0,0,0-.68-.21,10.1,10.1,0,0,1-1.62-.59c-1.72-.57-3-2.13-5-2.17-.08-.08-.16-.17-.25-.25a4.9,4.9,0,0,0-3.51-1.76c-1.65-1.47-3.87-1.93-5.63-3.22A11.36,11.36,0,0,0,193.35,79a39.7,39.7,0,0,1-6.58-3.22A41.53,41.53,0,0,0,182,73.19,27.44,27.44,0,0,1,175.92,70c-1-.72-1.83-1.34-3.08-1.08-.14-.78-.82-1-1.41-1.21a25.07,25.07,0,0,1-3.75-1.84c-.5-.28-.78-.92-1.41-.91a2.47,2.47,0,0,1-2.14-1.25,1.09,1.09,0,0,0-1.29-.51,3.25,3.25,0,0,1-1.53-2.9c.09-4.37,0-8.75,0-13.12a2.94,2.94,0,0,1,1.71-3,12.68,12.68,0,0,0,3.28-2,51.88,51.88,0,0,0,6.17-2.58A25.49,25.49,0,0,1,175,38.2,47.25,47.25,0,0,0,181.59,35a1.64,1.64,0,0,0,.73-.79c.36-.1.67-.41,1.09-.28a6.88,6.88,0,0,0,2.19-.62c2.15-1.51,4.64-2.31,6.94-3.5a2.59,2.59,0,0,1,2.5-.1c2,1,4,2,6,3,.76.37,1.53.75,2.34,1.06,2.13.81,4.17,1.88,6.24,2.87,1.46.69,2.82,1.63,4.48,1.81a1.19,1.19,0,0,0,1.12,1c1.36.07,2,1.4,3.48,1.65,2.22.37,4.07,2.12,6.28,2.86a1,1,0,0,1,.63.68c.49,1.25-.07,2.52.16,3.79.09.49-.46.61-.92.4-1.59-.74-3.2-1.48-4.77-2.24-2.73-1.31-5.43-2.69-8.18-4-3.4-1.6-6.76-3.27-10.19-4.81-.7-.31-.87-1.27-1.4-1.27-2.24,0-3.9-1.27-5.76-2.15-.69-.33-1.56-.43-1.92.63l0,0c-.24,0-.45,0-.52.28l0,0c-.81.08-1.63.12-2,1l0,0c-.23,0-.44,0-.52.28l0,0a3,3,0,0,0-2.15.4c-2.25,1.83-5.17,2.29-7.52,3.93a26,26,0,0,1-4.48,2.13c-.46.21-.74.89-1.39.62s-1.12.22-1.61.6a14.51,14.51,0,0,1-4.37,2.48A2.78,2.78,0,0,0,165.89,50,34.65,34.65,0,0,1,166,58c-.12,1.68.42,2.82,2.05,3.29a5.15,5.15,0,0,1,.91.38c2.53,1.28,5.09,2.5,7.58,3.87,2.85,1.57,5.84,2.87,8.66,4.51A16.18,16.18,0,0,0,188,71.68c1.08.35,2,.85,3.05,1.26s1.73,1.17,2.82,1.18l0,0a1.13,1.13,0,0,0,.74.79c1.57.6,2.83,1.73,4.46,2.32,3,1.08,5.56,3.25,8.59,4.48a13,13,0,0,1,2.23,1c2,1.24,4,2.41,6,3.5,1.83,1,3.74,1.79,5.6,2.72a13.86,13.86,0,0,0,2.34,1.35,3.48,3.48,0,0,1,2.74,3.44q0,9.24,0,18.48l-.23.25c-1,.94-2.43,1.28-3.55,2.12s-2.89.94-4,2.13a.85.85,0,0,1-.81.21c-.93-.24-1.23.35-1.39,1.1l0,0a1.4,1.4,0,0,0-1.53.76l0,0Z"/><path class="cls-2" d="M365.07,229.85l.27,0c.07.14.21.28.21.42a8.44,8.44,0,0,0,1.23,4.47c.37.68,1.23.81,1.43,1.48.37,1.29,1.24,1.52,2.38,1.37,1.32-.17,2.68.48,4-.26.78-.45,1.12-1.36,1.92-1.72s.77-.85.94-1.48a9.34,9.34,0,0,0-.08-5.11c-.21-.73.22-1.71-1-1.87-.31,0-.47-.44-.5-.8a3.21,3.21,0,0,0-1.63-2.82c-.22-.11-.32-.57-.66-.31s0,.43.14.62.2.39,0,.57a.35.35,0,0,1-.32.06c-1.06-1.08-2.72-1.3-3.7-2.43a27.85,27.85,0,0,0-3.33-2.92,28,28,0,0,0-3.17-2.72c-1.28-.8-1-2.71-2.5-3.23.29-1.18-.79-1.47-1.37-2.08l-.75-5v-.47l.23-.27c.18-1.53.24-3.08,1.27-4.39a10.93,10.93,0,0,0,1.73-2.62h0a2.56,2.56,0,0,0,1.5-.43c.79-.43,1.34-1.15,2.29-1.4a26.81,26.81,0,0,1,7.49-1.09c4.4.08,7.58,2.07,10.31,5.19a4,4,0,0,1,.42.76c.71,1.24.55,2.76,1.25,4,.49.87.09,1.23-.81,1.22-1.79,0-3.58,0-5.36,0a1.24,1.24,0,0,1-1.4-1.12c-.34-1.79-1.76-3-2.44-4.64l.06-.1-.05.1a7.09,7.09,0,0,1-2.59.26,5.39,5.39,0,0,0-2.77.49l-.36.28c-.41,0-.8-.1-1.1.36-1.6,2.45-2.17,4.88-.78,7.75a8.76,8.76,0,0,0,2.69,3.37,7.77,7.77,0,0,1,1.37,1.59c.36.46.61.95,1.35.93.5,0,.88.42,1.27.72a26,26,0,0,1,2.43,2.27c1.09,1.12,2.44,2,3.66,3.05a15.88,15.88,0,0,1,4.94,7,8.45,8.45,0,0,1-.13,6.33,11.61,11.61,0,0,1-2.85,4.14c-1.89,1.67-3.66,3.35-6.41,3.17-.53,0-.76.48-1.22.52s-.9-.16-1.26.23h-2.24a5.31,5.31,0,0,0-.55-.23c-1.8-.57-3.76-.48-5.46-1.47-.67-.38-.92-1.23-1.47-1.42-1.89-.62-2.77-2.13-3.69-3.66a11.3,11.3,0,0,1-1.84-5.46c0-.75.21-1,1-1,1.62,0,3.24,0,4.87,0C364.32,230.12,364.76,230.27,365.07,229.85Z"/><path class="cls-2" d="M194,207.06c-.22-.71-.41-1.44-.67-2.13a4.74,4.74,0,0,0-6-3.14c-2.49.6-4,3.78-3.12,6.7a11.78,11.78,0,0,0,4.15,5.64c2.27,1.9,4.64,3.67,6.92,5.54a25.11,25.11,0,0,1,6,6.78,11.32,11.32,0,0,1-3.79,15.33c-4.75,3.15-13.75,2.8-18.21-.72-3.39-2.67-4.87-6.31-5.29-10.5-.06-.64.17-.76.76-.75,2.24,0,4.49,0,6.74,0,.72,0,.92.25,1,.89a8.65,8.65,0,0,0,2.51,5.16,5.45,5.45,0,0,0,6.88.2,5.14,5.14,0,0,0,1.33-6.71,13.61,13.61,0,0,0-2.84-3.12c-3.2-2.86-6.84-5.18-9.91-8.19-2.4-2.36-4.57-4.82-5.3-8.26-1.47-6.91,2.07-12.72,9-14.19,4.61-1,9.2-.85,13.31,2a5.21,5.21,0,0,1,2.1,2.06l-.05.06c-.58-.07-1.45-.11-1.54-.6-.22-1.15-1.16-1.1-1.85-1.55-2.89-1.91-6.22-1.7-9.39-1.77a11.1,11.1,0,0,0-8.25,3.7,9,9,0,0,0-2.35,3.15,14.25,14.25,0,0,0-.49,6.37c.39,3.22,2.34,5.41,4.43,7.64,1.15,1.23,2.64,2.05,3.67,3.37a1.18,1.18,0,0,0,1.24.41c.34-.07.63-.21.67.36.06,1,.37,1.73,1.57,1.59a.32.32,0,0,1,.26.17c.19,1.51,1.52,1.86,2.53,2.55a19.23,19.23,0,0,1,3,3,4.54,4.54,0,0,1,1.2,4.15c-.12.57.64.92.21,1.47a16.14,16.14,0,0,1-2.12,2.84,6.34,6.34,0,0,1-8.3-.58,6.14,6.14,0,0,1-2-4.71c0-.55-.15-.86-.77-.85-1.83,0-3.66,0-5.5,0-.42,0-.87.16-.71.61.62,1.71-.62,4,1.54,5.23a.41.41,0,0,1,.13.32c-.11,1.3,1.16,1.79,1.64,2.76s2,1.16,2.75,2a4.52,4.52,0,0,0,2.36,1.36c1.69.5,3.45.16,5.12.54a11.1,11.1,0,0,0,6.42-.81c.69-.25,1.38-.62,1.51-1.49h0a2.7,2.7,0,0,0,1.78-.45,10.6,10.6,0,0,0,3.22-4.32,11.22,11.22,0,0,0,.6-5.59c-.12-1.47-1-2.63-1.49-3.92-.66-1.78-2.5-2.53-3-4.29-1.81.33-1.69-1.92-3-2.24a1,1,0,0,1-.52-.34,10.9,10.9,0,0,0-5.55-3.92c-.24-.07-.42-.38-.59-.61-.93-1.17-1.57-2.56-3.08-3.26a2,2,0,0,1-1.15-2.06,2.79,2.79,0,0,0-.08-.86c-.55-2.46-.35-4.72,1.49-6.65,1.31-1.37,4.59-2.26,5.74-1.35,1.86,1.47,3.39,3.19,3.12,5.83A1.18,1.18,0,0,1,194,207.06Z"/><path class="cls-2" d="M249.57,243.46a8,8,0,0,1-.09-2.34c0-12.2.12-24.4-.06-36.6-.09-5.62,3-8.05,6.77-9.15a22.38,22.38,0,0,1,14.93.55,7.8,7.8,0,0,1,5.26,7.83q-.08,19.37,0,38.73c0,.88-.24,1.14-1.11,1.11-2-.07-4-.08-6,0-1,0-1.29-.16-1.26-1.2.08-2.79,0-5.58.05-8.37,0-.9-.27-1.11-1.13-1.1-3,.05-6.08,0-9.12,0,.06-.73.63-.53,1.05-.53,2.79,0,5.58,0,8.37,0,1.2,0,1.62.47,1.6,1.64,0,2.63,0,5.25,0,7.87,0,.78.26,1.24,1,1.24a24.72,24.72,0,0,0,5.23-.22.84.84,0,0,0,.76-.83c.07-1.15.23-2.31.23-3.47q0-15.06,0-30.11c0-1-.23-2.07-.2-3.1.08-3.35-.17-6.28-3.86-8.08s-7.41-2.81-11.5-2.21c-.12,0-.25,0-.37,0a12.2,12.2,0,0,0-7.85,3.11,7,7,0,0,0-2.45,5.22q0,18.67,0,37.36c0,.45.1.9.13,1.36.05.8.49,1,1.24,1,1.28,0,2.58-.25,3.84-.17,2.12.14,2.26.15,2.27-2s0-4.16,0-6.25a2.53,2.53,0,0,1,.37-1.54c0,3.43.21,6.85-.09,10.28C254.92,243.34,252.25,243.37,249.57,243.46Z"/><path class="cls-2" d="M314.35,213.89c0,5.33,0,10.66,0,16,0,3.24-1.08,6.2-2.19,9.16a5.69,5.69,0,0,1-2.17,2.37c-6,4.55-16.69,3.38-21.55-2.38a12.77,12.77,0,0,1-2.9-7.3c-.06-.76.07-1.13,1-1.11,2.54.06,5.09,0,7.63,0,.69,0,.89.22.95.92a5.52,5.52,0,0,0,8,4.31,4.82,4.82,0,0,0,2.39-3.76,14.64,14.64,0,0,0,.21-2.73q0-16.25,0-32.49c0-1.11.26-1.43,1.37-1.37,1.95.1,3.92.09,5.87,0,1.1,0,1.47.19,1.45,1.38-.07,5.67,0,11.33,0,17Zm-8.28,1.25c0,5.45,0,10.9,0,16.36,0,3.33-2.29,5.61-5.32,5.37-.66-.05-1.32-.15-2-.25-2.69-.41-3.69-1.43-3.95-4.09a1.38,1.38,0,0,0-1.39-1.35c-2.24-.08-4.49,0-6.74,0-.24,0-.68.16-.49.33.76.68,0,1.43.2,2.13a13.54,13.54,0,0,0,2.33,4.89c1.07,1.42,2.88,1.89,3.93,3.3,0,.05.15.05.23.08,1.31.44,2.65.84,3.94,1.33,2.3.86,4.59.28,6.89.1a6.59,6.59,0,0,0,4.85-2.18c.1-.12.23-.31.35-.31,2.25.05,2.18-2.21,3.29-3.29.4-.38-.15-.93.17-1.51a12.4,12.4,0,0,0,1.42-6.15c0-10.4,0-20.81.05-31.22,0-.77-.9-1.26-.67-1.7.6-1.15-.26-1-.78-1-1.9,0-3.81,0-5.71.05-.29,0-.63.21-.52.37.66.95-.16,1.78-.15,2.69C306.12,204.4,306.07,209.77,306.07,215.14Z"/><path class="cls-2" d="M336.31,220.1q0,6.06-.08,12.11c0,1.62,0,3.25,0,4.87-.05,1.09.21,1.51,1.43,1.49,3.87-.09,7.74,0,11.62-.06.9,0,1.29.17,1.18,1.16a10.37,10.37,0,0,0,0,2.49c.14,1.13-.19,1.47-1.38,1.46q-10-.09-20,0c-.93,0-1.19-.23-1.19-1.17q0-23.23,0-46.47c0-.83.24-1.06,1.05-1,6.83,0,13.66,0,20.49,0,.88,0,1.05.32,1,1.08a21.46,21.46,0,0,0,0,3c.08.88-.3,1-1.06,1-3.91,0-7.83,0-11.74,0-1.05,0-1.45.2-1.43,1.35.07,4.12,0,8.24,0,12.37a9.9,9.9,0,0,0,.14,1.22l-.55-.28c-.05-.06-.15-.13-.14-.19a90.84,90.84,0,0,0-.09-13.3,1.54,1.54,0,0,1,2.27-1.71,3.66,3.66,0,0,0,1.46.22h7.62c3.4,0,2.9.38,2.91-2.88,0-1.14-.43-1.42-1.48-1.4-2.62,0-5.24,0-7.87,0-3.33,0-6.66,0-10,0-.83,0-1.78,0-1.92,1.14a22.31,22.31,0,0,0-.29,3q0,20.49,0,41c0,2.34-.05,2.61,2.72,2.65,5.78.09,11.57,0,17.36,0,1.35,0,1.65-.31,1.69-1.7,0-.29,0-.58,0-.88,0-1.47-.21-1.68-1.65-1.68h-9.24a4.11,4.11,0,0,0-1.11.13c-1.63.52-2.22.07-2.26-1.65-.11-5.44.27-10.89-.19-16.33a.93.93,0,0,1,.65-1Z"/><path class="cls-2" d="M208.59,116.42a5.7,5.7,0,0,1-2.16,1.33,11.16,11.16,0,0,0-2,1c-1.39.85-3,1.29-4.32,2.15-1.65,1.06-3.6,1.46-5.19,2.59a2,2,0,0,1-2.33,0,45.41,45.41,0,0,0-6.45-3.27,49.85,49.85,0,0,1-5-2.24c-1.66-.92-3.38-1.79-5.07-2.68a73.59,73.59,0,0,0-6.83-3.4,12.73,12.73,0,0,1-2.8-1.56c-1-.74-2.31-.61-3.23-1.44-.29-.26-.7,0-.54.28.48,1-.24,2-.07,3a2.24,2.24,0,0,0,1.3,1.88c1.67.89,3.59,1.33,5.07,2.6,0,0,.07.08.09.07,1.79-.48,2.49,1.4,3.89,1.82.73.22,1.55-.21,2.26.57.48.52,1.62.31,1.77,1.46,0,.25.66.46,1.08.08a.7.7,0,0,1,1.09.13c.4,1.39,1.67,1.56,2.68,2a81.08,81.08,0,0,1,8.46,4.19c1.42.78,2.92,2,4.61,1.19,1.93-.91,4.22-1.27,5.61-3.17.18-.23.4-.54.69-.48,1.33.3,2.11-.65,3.11-1.21s2.16-.53,3.12-1.13c.49-.31,1.08-.37,1.41-1.07s1.21-.06,1.83-.12a17.77,17.77,0,0,1-4,2.12c-3.94,2-7.92,3.88-11.87,5.84a1.75,1.75,0,0,1-1.73,0q-15.09-7.47-30.2-14.86c-.49-.24-.82-.43-.81-1.07.05-1.7,0-3.41,0-5.32,1,.49,2,.9,2.88,1.35q13.89,6.81,27.76,13.65a2.43,2.43,0,0,0,2.42,0c4.49-2.24,9-4.42,13.54-6.62Z"/><path class="cls-2" d="M220.06,238.2a7.28,7.28,0,0,0,5.2.67,3.7,3.7,0,0,0,3.17-3.5,16.52,16.52,0,0,0,.07-1.87q0-18.67,0-37.36c0-1,.35-1.23,1.28-1.2,1.91.06,3.83.07,5.75,0,1,0,1.34.24,1.33,1.31-.05,8.37,0,16.74,0,25.11v12.87c0,4.82-1.83,7.51-6.4,8.91a22.79,22.79,0,0,1-14.12-.14,7,7,0,0,1-2.64-1.37l.45,0c1.27.13,2.28,1.09,3.5,1.21,2.92.28,5.84,1.17,8.82.3a35.46,35.46,0,0,1,4-.57c1-.18,2.25-.42,2.7-1.69h0a6.23,6.23,0,0,0,2.53-2.48,9.92,9.92,0,0,0,.69-4.5c0-11.7,0-23.39,0-35.09,0-.86-.18-1.73-.24-2.59,0-.52-.38-.52-.77-.6a21.31,21.31,0,0,0-4.22-.23c-2,0-2,0-2,2v15.36c0,6.62,0,13.24,0,19.85,0,.81.62,1.48.37,2.22a10.92,10.92,0,0,1-1.24,2.71c-.71,1.05-1.47,2.29-3,2a4.85,4.85,0,0,0-2.08.05q-.12-.2-.24,0l-1-.22h-.25l-.5,0c-.15-.76-.78-.38-1.2-.49l0-.48Z"/><path class="cls-2" d="M343.37,258.63c0,3.58,0,7.16,0,10.74,0,.53,0,1-.73,1s-.85-.2-.85-.86c0-4.46,0-8.92,0-13.37,0-.35-.29-.89.37-1a1.34,1.34,0,0,1,1.41.56c1.54,2,3.12,4,4.69,6s2.92,3.69,4.43,5.58a1.9,1.9,0,0,0,.27-1.43c0-3.17,0-6.33,0-9.5,0-.54-.3-1.28.81-1.25s.75.79.75,1.31q0,6.38,0,12.75c0,.41.28,1-.38,1.16a1.36,1.36,0,0,1-1.53-.53c-2.07-2.67-4.17-5.3-6.27-7.95l-2.68-3.35Z"/><path class="cls-2" d="M101.07,235.65l2.59,7.92c-2.71,0-5.25,0-7.78,0-.73,0-.74-.53-.89-1-2-6-4-12-5.89-18a1.35,1.35,0,0,0-1.55-1.16c-2.74,0-2.74,0-2.74,2.77,0,5.38,0,10.75,0,16.12,0,.93-.14,1.33-1.21,1.28-2-.1-4.08-.06-6.12,0-.74,0-1-.15-1-1q0-23.35,0-46.73c0-.44-.14-1,.61-.94,5.29.12,10.58-.24,15.86.21-.47,0-.17.3-.14.48-.44.41-.7,0-1-.22a2.15,2.15,0,0,0-2.24,0H78.34c-.84,0-1.53,0-1.28,1.26a13.47,13.47,0,0,1,.27,2.84q0,20,0,40.09c0,.44.16.92-.23,1.3-.09-14.66.16-29.33-.29-44a.6.6,0,0,0-.2.48q0,22.11,0,44.22c0,.35-.12.76.25,1a2.13,2.13,0,0,0,1.61.52c1.32-.05,2.64-.06,4-.22,1.62-.2,1.89-.23,1.88-1.9,0-5.32.22-10.64-.12-15.95-.06-1,.1-1.91,1-2.29,1.06-.44,2.26.34,3.39-.07.06,0,.25.2.32.34a25.71,25.71,0,0,1,2.28,5.42c.7,2.59,1.63,5.09,2.32,7.67a8.75,8.75,0,0,0,1.22,3.23,1.81,1.81,0,0,1,.41,1.36c0,.84.24,1.95,1,2a18.75,18.75,0,0,0,5.44.28c.61-.11,1.05-.39.77-1.22-.5-1.47-.88-3-1.31-4.48-.15-.5-.66-.88-.49-1.48.18,0,.36,0,.43-.23Z"/><path class="cls-2" d="M48.16,270.26a1.7,1.7,0,0,1-2.23-1c-.71-1.27-1.6-2.44-2.31-3.7a1.64,1.64,0,0,0-1.7-.9c-3.28,0-3.28,0-3.28,3.34,0,.5,0,1,0,1.49s-.08.85-.73.85-.86-.21-.86-.87q0-6.8,0-13.6c0-.58.16-.79.77-.78,2,0,4,0,6,0a4.83,4.83,0,0,1,1.84,8.95c-.94.43-.78.74-.34,1.4,1,1.48,1.91,3,2.85,4.53C48.2,270.07,48.17,270.18,48.16,270.26Zm-9.53-10.59c0,1.06,0,1.89,0,2.72s.14,1,1,1c1.24-.07,2.49,0,3.73,0a3,3,0,0,0,3.07-2.67,3.36,3.36,0,0,0-3.55-4.24c-1.36,0-3-.5-4,.24C38.13,257.19,38.72,258.79,38.63,259.67Z"/><path class="cls-2" d="M338.13,262.77a7.31,7.31,0,0,1-7.67,7.66,7.07,7.07,0,0,1-6.16-5.06c-1.76-5.06,1.85-10.52,6.88-10.42C335,255,338.12,258.49,338.13,262.77Zm-1.55.53a7.33,7.33,0,0,0-1.36-4.74,5.15,5.15,0,0,0-8.5.11,6.8,6.8,0,0,0-.6,7.1,5.2,5.2,0,0,0,7.28,2.69A6.08,6.08,0,0,0,336.58,263.3Z"/><path class="cls-2" d="M101.17,270.43c-5.22,0-8.68-5.7-6.65-10.69,1.45-3.56,4.68-5.4,8.13-4.62,3.24.72,5.86,4.4,5.59,7.91-.24,3.24-1.66,5.7-4.76,7A5.24,5.24,0,0,1,101.17,270.43Zm5.52-7.59a12.15,12.15,0,0,0-.14-1.48c-.53-2.42-1.85-4.23-4.31-4.85a4.83,4.83,0,0,0-5.29,2,6.78,6.78,0,0,0-.55,7.64,5.16,5.16,0,0,0,8.65,1.07A6.78,6.78,0,0,0,106.69,262.84Z"/><path class="cls-2" d="M262.66,270.43c-4,0-7.13-3.36-7.12-7.71s3.21-7.78,7.14-7.77,7.14,3.52,7.14,7.77S266.66,270.45,262.66,270.43Zm-5.57-7.71c0,4.18,3.4,7.17,7,6.15,2.68-.75,4.54-4,4.07-7.06s-2.61-5.31-5.16-5.41C259.71,256.27,257.1,259.05,257.09,262.72Z"/><path class="cls-2" d="M133.1,234.22a6.67,6.67,0,0,0,1.42-4.51c0-11.2,0-22.39,0-33.59,0-.93.21-1.22,1.16-1.18q2.94.12,5.87,0c1-.05,1.32.26,1.32,1.31q-.06,17.35,0,34.71a8.33,8.33,0,0,1-.68,3.27c-.11.26-.17.56-.48.68l-.29,0c.26-.85.6-1.67.8-2.57a17.37,17.37,0,0,0-.08-3.82q0-15.18,0-30.36c0-.5,0-1,0-1.5a.85.85,0,0,0-1-1h-5c-.4,0-.74.05-.78.57-.07,1-.24,2-.24,3,0,9.75,0,19.49,0,29.24a15.79,15.79,0,0,1,.06,3.44,3.12,3.12,0,0,1-2,2.55A1.28,1.28,0,0,0,133.1,234.22Z"/><path class="cls-2" d="M116.84,270.46a9.31,9.31,0,0,1-5.4-1.66c-.62-.42-.51-.77-.19-1.32.46-.78.74-.12,1,.09a7.72,7.72,0,0,0,6.15,1.35c1.53-.3,2.29-1.09,2.36-2.33s-.55-2-2-2.49-2.8-.77-4.19-1.2c-2.39-.73-3.29-1.77-3.22-3.68a4.14,4.14,0,0,1,3.57-4.05,7.52,7.52,0,0,1,6.1,1c.47.32.74.56.34,1.18s-.73.31-1.16,0a6.07,6.07,0,0,0-5.48-.7,2.39,2.39,0,0,0-1.73,2.47,2.12,2.12,0,0,0,1.71,2.17c1.52.46,3.06.8,4.57,1.28,2.47.79,3.3,1.93,3.13,4.13-.15,2-1.5,3.27-3.82,3.62A17,17,0,0,1,116.84,270.46Z"/><path class="cls-2" d="M247.62,270.43a8.83,8.83,0,0,1-5.43-1.57c-.51-.35-.79-.63-.36-1.29s.77-.22,1.16,0a7.72,7.72,0,0,0,6.28,1.27,2.37,2.37,0,0,0,2.12-2.12,2.27,2.27,0,0,0-1.7-2.57c-1.49-.5-3-.84-4.54-1.32-2.43-.77-3.18-1.7-3.12-3.72a4.06,4.06,0,0,1,3.37-3.94,7.55,7.55,0,0,1,6.12.87c.52.33.91.62.43,1.36s-.83.07-1.13-.13a6.44,6.44,0,0,0-5.27-.7,2.44,2.44,0,0,0-1.92,2.46,2.22,2.22,0,0,0,1.88,2.3c1.63.49,3.29.88,4.9,1.42a3.44,3.44,0,0,1,2.69,3.71,3.87,3.87,0,0,1-2.91,3.63A7.63,7.63,0,0,1,247.62,270.43Z"/><path class="cls-2" d="M364.33,270.34c-1.42,0-2.84,0-4.25,0-.59,0-.92-.09-.92-.8,0-4.58,0-9.16,0-13.74,0-.54.19-.71.73-.71q4.37,0,8.74,0c.46,0,.68.13.67.64s-.18.72-.74.71c-2.24,0-4.49,0-6.74,0-.81,0-1.11.2-1.06,1,.06,1.12.05,2.25,0,3.37-.05.8.2,1.1,1,1.08,1.83-.06,3.66,0,5.49,0,.5,0,.87,0,.88.7s-.48.63-.91.63c-1.84,0-3.67,0-5.5,0-.75,0-1,.19-1,1,.05,1.24.06,2.5,0,3.74,0,.78.22,1,1,1,2.25,0,4.5,0,6.75,0,.53,0,1-.05,1,.73s-.52.69-1,.69h-4.12Z"/><path class="cls-2" d="M207.37,270.43a8.72,8.72,0,0,1-5.28-1.59c-.54-.37-.69-.67-.29-1.3.52-.83.81-.15,1.14.08a7.74,7.74,0,0,0,6.29,1.26,2.36,2.36,0,0,0,2.11-2.13,2.26,2.26,0,0,0-1.72-2.56c-1.46-.48-3-.82-4.43-1.28-2.43-.76-3.3-1.77-3.24-3.66a4.18,4.18,0,0,1,3.65-4.11,7.64,7.64,0,0,1,6,1c.57.36.68.69.3,1.29s-.7.19-1-.05a6.13,6.13,0,0,0-5.24-.81,2.46,2.46,0,0,0-2,2.51c-.05,1.35.81,1.9,1.89,2.29,1.61.58,3.33.75,4.92,1.4,1.87.77,2.71,1.87,2.67,3.62a3.89,3.89,0,0,1-3,3.73A8.07,8.07,0,0,1,207.37,270.43Z"/><path class="cls-2" d="M381.62,257.89a6.41,6.41,0,0,0-5-1.51,4.11,4.11,0,0,0-1.55.42,2.54,2.54,0,0,0-1.45,2.44,2.15,2.15,0,0,0,1.7,2.07c1.74.54,3.54.93,5.26,1.53a3.47,3.47,0,0,1,2.47,4.2,3.6,3.6,0,0,1-2.89,3.08,9.45,9.45,0,0,1-8-1.29c-.55-.37-.71-.65-.32-1.28.48-.8.77-.2,1.13,0a7.75,7.75,0,0,0,6.28,1.29,2.45,2.45,0,0,0,2.19-2.21,2.31,2.31,0,0,0-1.71-2.46,27.17,27.17,0,0,0-2.62-.79c-.84-.25-1.69-.44-2.51-.74-1.83-.66-2.57-1.6-2.59-3.24a3.87,3.87,0,0,1,2.41-3.87,7.66,7.66,0,0,1,6.85.34C382.33,256.43,382.6,257,381.62,257.89Z"/><path class="cls-2" d="M14.1,270.39a8.58,8.58,0,0,1-5.5-1.64c-.69-.49-.4-.83-.1-1.32.44-.71.67-.06.94.12a7.87,7.87,0,0,0,6.28,1.36A2.44,2.44,0,0,0,18,266.75a2.27,2.27,0,0,0-1.74-2.55c-1.46-.5-3-.85-4.43-1.29-2.4-.71-3.3-1.77-3.22-3.79a4.2,4.2,0,0,1,3.64-4,7.88,7.88,0,0,1,6,1c.57.35.67.7.29,1.3-.47.75-.75.13-1.06-.07a6.4,6.4,0,0,0-5.38-.76,2.49,2.49,0,0,0-1.9,2.5A2.19,2.19,0,0,0,12,261.35c1.47.44,3,.76,4.44,1.23,2.57.84,3.44,2.08,3.18,4.34-.22,1.91-1.81,3.25-4.13,3.47C15,270.43,14.56,270.39,14.1,270.39Z"/><path class="cls-2" d="M137.07,270.39a8.42,8.42,0,0,1-5.3-1.5c-.54-.36-.9-.65-.38-1.37s.83-.12,1.18.12a7.74,7.74,0,0,0,6.29,1.23,2.38,2.38,0,0,0,2.1-2.16,2.24,2.24,0,0,0-1.66-2.48c-1.49-.5-3-.88-4.54-1.33-2.4-.72-3.22-1.68-3.19-3.68a4,4,0,0,1,3.41-4,7.75,7.75,0,0,1,6.23,1c.55.35.67.69.27,1.3s-.78.11-1.07-.09a6.29,6.29,0,0,0-5.38-.74,2.45,2.45,0,0,0-1.87,2.51,2.16,2.16,0,0,0,1.83,2.21c1.43.41,2.89.76,4.32,1.2,2.55.78,3.51,2.06,3.29,4.27-.2,2-1.77,3.35-4.16,3.56A12.5,12.5,0,0,1,137.07,270.39Z"/><path class="cls-2" d="M23.08,262.66c0-2.16,0-4.33,0-6.49,0-.77.15-1.09,1-1.07,2.75.05,5.5,0,8.24,0,.48,0,.87-.07.86.67s-.35.68-.86.68c-2.2,0-4.41,0-6.61,0-.83,0-1.1.26-1.06,1.07.05,1.17.05,2.33,0,3.5,0,.74.27.92.94.91,1.83,0,3.66,0,5.49,0,.51,0,1-.08,1,.71s-.62.61-1.06.61c-1.74,0-3.49,0-5.24,0-.83,0-1.2.19-1.15,1.11a29.15,29.15,0,0,1,0,3.62c0,.76.19,1,1,1,2.25-.05,4.5,0,6.74,0,.58,0,1.07-.05,1,.8s-.61.62-1.05.62c-2.71,0-5.41,0-8.11,0-1,0-1.19-.3-1.16-1.21C23.12,267,23.08,264.83,23.08,262.66Z"/><path class="cls-2" d="M189.07,262.65c0-2.2,0-4.41,0-6.62,0-.69.17-.94.9-.92,2.79,0,5.58,0,8.37,0,.54,0,.83,0,.83.72s-.45.62-.9.62c-2.21,0-4.42,0-6.62,0-.76,0-1,.23-1,1a34.05,34.05,0,0,1,0,3.5c0,.78.23,1,1,1,1.83-.05,3.66,0,5.5,0,.54,0,1,0,1,.76s-.59.56-1,.56c-1.79,0-3.59,0-5.38,0-.75,0-1.14.17-1.08,1a31.23,31.23,0,0,1,0,3.62c-.05.82.22,1.07,1,1.05,2.2-.05,4.41,0,6.62,0,.53,0,1.11-.15,1.08.74s-.56.68-1,.68c-2.74,0-5.49,0-8.24,0-.85,0-1.05-.28-1-1.08C189.1,267.07,189.07,264.86,189.07,262.65Z"/><path class="cls-2" d="M158.66,260.39c-.08,1.57.19,3.49-.32,5.37-.89,3.26-2.89,4.72-6.43,4.68a5.6,5.6,0,0,1-5.71-4.76c-.74-3.33-.24-6.73-.36-10.09,0-.6.47-.44.81-.48.52-.05.74.14.74.7,0,2.29,0,4.57,0,6.86a10.67,10.67,0,0,0,.44,3.08,4.63,4.63,0,0,0,8.87,0,9.23,9.23,0,0,0,.41-3c0-2.29,0-4.58,0-6.87,0-.64.17-.87.84-.87s.74.29.73.83C158.64,257.3,158.66,258.68,158.66,260.39Z"/><path class="cls-2" d="M220.06,238.2l-.23.2c-1.34-.48-1.74-1.11-1.74-2.76q0-18.3,0-36.6a20.5,20.5,0,0,0-.2-2.35c-.1-.91-.54-1.09-1.31-1.06-1,0-2,0-3,0-2.46,0-2.46,0-2.5,2.49-.33.3-.24.69-.24,1.06q0,18.72,0,37.44c.08.42.15.83.23,1.25l-.24.27a5.86,5.86,0,0,1-.55-2.79q0-19.53,0-39.08c0-1.12.29-1.4,1.38-1.34a55,55,0,0,0,5.74,0c1-.05,1.23.34,1.22,1.28,0,12.61,0,25.22,0,37.83C218.56,235.64,218.72,237.12,220.06,238.2Z"/><path class="cls-2" d="M163.8,219.4c0,7.62,0,15.24,0,22.86,0,1.16-.34,1.39-1.4,1.34-2-.08-4,0-6,0-.73,0-1.05-.15-1-1,.06-1.25,0-2.5,0-3.75q0-20.92,0-41.85c0-2.07,0-2.07,2-2.07,1.67,0,3.34.07,5,0,1.08-.06,1.4.22,1.39,1.35-.05,7.71,0,15.41,0,23.12Zm-.47.74c0-4.92,0-9.83,0-14.75a60.12,60.12,0,0,0-.21-8.59,1.26,1.26,0,0,0-1.11-1.24c-1.77-.4-3.54,0-5.31-.12-.45,0-.59.38-.6.8,0,1.36-.28,2.71-.28,4.09q0,20.29,0,40.6c0,.38,0,.75,0,1.13s.17.75.62.8A21.17,21.17,0,0,0,162,243c1.09-.18,1.33-.6,1.32-1.61C163.31,234.3,163.33,227.22,163.33,220.14Z"/><path class="cls-2" d="M285.77,259.92c0-1.34,0-2.67,0-4,0-.53.06-.83.72-.83s.85.21.84.87c0,2.24,0,4.49,0,6.74a9.53,9.53,0,0,0,.55,3.43,4.63,4.63,0,0,0,8.68-.14,12.09,12.09,0,0,0,.52-4.06c0-2,0-3.91,0-5.87,0-.52-.05-1,.74-1s.84.28.81.9c-.11,3,.3,6-.21,9-.7,4.05-2.87,5.68-7,5.47-3.08-.15-5.24-2.49-5.55-6.14-.12-1.44,0-2.91,0-4.36Z"/><path class="cls-2" d="M174,270.33c-.51.05-.89,0-1-.57a2.07,2.07,0,0,0-.15-.34c-.51-1.22-.71-2.87-1.62-3.56s-2.73-.21-4.14-.23c-2.64,0-2.64,0-3.64,2.47-.23.58-.46,1.16-.7,1.74-.3.76-1,.61-1.49.45-.65-.23-.05-.72.07-1,1.83-4.46,3.71-8.9,5.56-13.35.2-.49.37-.85,1-.83s.76.3.95.76q2.82,6.79,5.66,13.57C174.82,270.07,174.88,270.5,174,270.33ZM167.91,257c-1,2.4-1.81,4.54-2.68,6.68-.23.55-.08.73.5.72,1.65,0,3.31,0,5.12,0Z"/><path class="cls-2" d="M309.35,270.45a6.62,6.62,0,0,1-6.11-3.63,7.9,7.9,0,0,1-.07-8.31,6.94,6.94,0,0,1,10.3-2.15,6.19,6.19,0,0,1,1.16,1.29c.27.39.3.68-.15.9s-.63.62-1,0a4.85,4.85,0,0,0-6-1.89c-2.5.85-3.5,2.94-3.75,5.41A6.17,6.17,0,0,0,308.5,269a4.83,4.83,0,0,0,5-2c.48-.67.84-.46,1.3-.2.69.39.16.82-.07,1.12A6.64,6.64,0,0,1,309.35,270.45Z"/><path class="cls-2" d="M57,268.05c.89-2.17,1.74-4.27,2.6-6.37L62,255.91c.16-.37.2-.85.79-.8.32,0,.76-.05.95.12s-.07.6-.19.89c-1.84,4.45-3.7,8.9-5.54,13.36-.19.48-.32.88-1,.88s-.92-.35-1.14-.89c-1.82-4.42-3.67-8.83-5.48-13.25-.13-.32-.74-.83,0-1.06a1.06,1.06,0,0,1,1.5.63c1.4,3.55,2.86,7.09,4.31,10.63A3.73,3.73,0,0,0,57,268.05Z"/><path class="cls-2" d="M72.09,262.13l0-.47a9.83,9.83,0,0,1,2.57-5,.2.2,0,0,0,.13-.09c.35-.22.69-.46,1-.66,2.89-1.66,6.8-1,8.55,1.48.24.32.88.67.13,1.19s-.87.28-1.24-.3a4,4,0,0,0-2.18-1.58c-4-1.4-8,2.08-7.35,6.51l.11.95a4.42,4.42,0,0,0,.68,2,5.29,5.29,0,0,0,8.87,1,.15.15,0,0,0,.1-.13.68.68,0,0,0,.33-.57h0c.6-.14.95.38,1.44.53a.18.18,0,0,0,0,.16,7.11,7.11,0,0,1-1.82,2c-2.77,1.88-5.71,1.72-8.85-.53h0l-.26-.26h0A10.09,10.09,0,0,1,72.09,262.13Z"/><path class="cls-2" d="M9.79,229.64c.53,2,1,4,2.62,5.54a5.43,5.43,0,0,0,7.07.1,5.09,5.09,0,0,0,.87-7.05c-2-2.64-4.76-4.49-7.33-6.53-3.55-2.82-7.18-5.58-9.38-9.69S2,201.94,4.86,198.92l.24.23c0,.51-.78.59-.74.91.14,1.22-1,2-1.14,2.87a18.64,18.64,0,0,0,0,6.28c.32,2,2.13,3.06,2.72,4.85a6.49,6.49,0,0,0,2,2.44c1.06,1,2.15,2,3.25,3,.64.56,1.11,1,2,.95.35,0,.77,0,.63.51-.3,1,.43,1.1,1,1.33.31.11.83.13.9.33.6,1.63,2.07,1.75,3.43,2.07.52.12.78.52.45.91-.58.66,0,1.07.31,1.31,2.26,1.86,2.42,4.13,1.46,6.68-.22.6-.33,1.21.31,1.69a.52.52,0,0,1,.07.69.36.36,0,0,1-.54.09c-1.06-.84-1.74-.18-2.43.56a2,2,0,0,1-.69.51,6,6,0,0,1-6.27-1.68,7.43,7.43,0,0,1-2.24-5.76Z"/><path class="cls-2" d="M26.34,198.16c2.46,2,3.2,4.74,3.51,7.71.07.68-.2.84-.83.83-2.29,0-4.59,0-6.88,0-.66,0-.86-.22-.94-.81a7,7,0,0,0-.36-1.32c-.94-2.85-2.91-4-6-3.43-2,.35-3.53,2.63-3.42,5.17a7.33,7.33,0,0,0,1.55,4.15,29.5,29.5,0,0,0,6.33,5.78,42.44,42.44,0,0,1,7.66,6.94,8.34,8.34,0,0,1,1.44,2.18l.15.28.06,0v.06a.67.67,0,0,1-.45.65c-1-.94-1.2-2.4-2.16-3.45-.55-.61-1.29-1-1.74-1.63-1.12-1.62-2.83-2.61-4.26-3.9s-3.45-1.89-4.65-3.61a8.21,8.21,0,0,0-2.23-1.71C12,211.34,11.93,210,11.35,209a6.51,6.51,0,0,1,1-7.15,5.57,5.57,0,0,1,9,2.17c.29.68-.21,1.78.82,2a10.89,10.89,0,0,0,2.36.07H26c.28,0,.61,0,.77-.28.38-.77.71-.41,1.09,0s.71.66,1.18.32a.93.93,0,0,0,.18-1.25,12.37,12.37,0,0,1-.95-3.41,3,3,0,0,0-1.24-1.94,1.24,1.24,0,0,1-.71-1.21Z"/><path class="cls-2" d="M227.29,263.18c1.5-2.43,2.92-4.67,4.25-7a1.75,1.75,0,0,1,2.33-1l-2.37,3.9a14.81,14.81,0,0,1-.79,1.26,11.1,11.1,0,0,0-2.65,8.88c.1.64,0,1.16-.87,1.09-.48,0-.75-.16-.65-.65,1-4.74-1.9-8.09-4.13-11.68-.56-.9-1.11-1.81-1.71-2.79,1.06-.26,1.71-.17,2.26.81C224.28,258.4,225.75,260.67,227.29,263.18Z"/><path class="cls-2" d="M193.88,74.12c-1.09,0-1.87-.8-2.82-1.18s-2-.91-3.05-1.26A16.18,16.18,0,0,1,185.18,70c-2.82-1.64-5.81-2.94-8.66-4.51-2.49-1.37-5.05-2.59-7.58-3.87a5.15,5.15,0,0,0-.91-.38c-1.63-.47-2.17-1.61-2.05-3.29a34.65,34.65,0,0,0-.09-7.95,2.78,2.78,0,0,1,2.22-3.42,14.51,14.51,0,0,0,4.37-2.48c.49-.38.86-.91,1.61-.6s.93-.41,1.39-.62A26,26,0,0,0,180,40.77c2.35-1.64,5.27-2.1,7.52-3.93a3,3,0,0,1,2.15-.4,16.27,16.27,0,0,1-3.7,2q-9.23,4.56-18.48,9a1.55,1.55,0,0,0-1,1.61c.05,3.12.06,6.25,0,9.37a1.74,1.74,0,0,0,1.16,1.79q12.63,6.51,25.22,13.11C193.19,73.55,193.7,73.62,193.88,74.12Z"/><path class="cls-2" d="M116.34,195.4l.06-.25c2.12,0,4.24.07,6.36,0,1.22-.05,1.62.24,1.61,1.56-.06,11.19,0,22.37,0,33.56,0,.41-.22.88.2,1.23l.4,1.31-.14.13c-.52,0-.73-.24-.73-.77,0-1.66-.26-3.3-.26-5,0-10.07,0-20.14.05-30.21,0-1-.24-1.46-1.31-1.34-1.67.18-3.35-.16-5,.17-.46.1-.75-.17-.75.48,0,2.87.06,5.74.07,8.61q0,13,0,26c0,.87-.22,1.9.38,2.55a2.78,2.78,0,0,1,.84,2.47H118a.12.12,0,0,1-.11-.13l-.24-.35-.27-.41-.17-.34a.13.13,0,0,1-.08-.15l0,0a5.16,5.16,0,0,1-.62-1.92c.27-.9-.13-1.78-.13-2.68,0-11.22,0-22.43,0-33.64v-.88Z"/><path class="cls-2" d="M374.57,243.15c.46,0,.69-.55,1.22-.52,2.75.18,4.52-1.5,6.41-3.17a11.61,11.61,0,0,0,2.85-4.14,8.45,8.45,0,0,0,.13-6.33,15.88,15.88,0,0,0-4.94-7c-1.22-1-2.57-1.93-3.66-3.05a26,26,0,0,0-2.43-2.27c-.39-.3-.77-.74-1.27-.72-.74,0-1-.47-1.35-.93a7.77,7.77,0,0,0-1.37-1.59,8.76,8.76,0,0,1-2.69-3.37c-1.39-2.87-.82-5.3.78-7.75.3-.46.69-.37,1.1-.36a13.08,13.08,0,0,0-1.1,1.47,6.43,6.43,0,0,0,.17,7,17.77,17.77,0,0,0,5.73,5.65,42.21,42.21,0,0,1,8.65,7.67c3.14,3.53,4.44,7.66,2.66,12.24a11.45,11.45,0,0,1-9.64,7.48C375.4,243.31,374.92,243.55,374.57,243.15Z"/><path class="cls-2" d="M273.47,262.64c0-2-.06-3.92,0-5.87,0-.56-.67-1.61.72-1.66s.79,1,.8,1.61c.05,3.66.06,7.32,0,11,0,1,.29,1.26,1.26,1.23,2.16-.07,4.33,0,6.49,0,.49,0,1-.13,1,.7s-.47.72-1,.72c-2.79,0-5.58,0-8.37,0-.76,0-1-.19-1-1C273.5,267.14,273.47,264.89,273.47,262.64Z"/><path class="cls-2" d="M359.32,211.13c.58.61,1.66.9,1.37,2.08,1.52.52,1.22,2.43,2.5,3.23a28,28,0,0,1,3.17,2.72,27.85,27.85,0,0,1,3.33,2.92c1,1.13,2.64,1.35,3.7,2.43a.35.35,0,0,0,.32-.06c.15-.18.06-.38,0-.57s-.43-.4-.14-.62.44.2.66.31a3.21,3.21,0,0,1,1.63,2.82c0,.36.19.76.5.8,1.26.16.83,1.14,1,1.87a9.34,9.34,0,0,1,.08,5.11c-.17.63-.27,1.16-.94,1.48s-1.14,1.27-1.92,1.72c-1.3.74-2.66.09-4,.26-1.14.15-2-.08-2.38-1.37-.2-.67-1.06-.8-1.43-1.48a8.44,8.44,0,0,1-1.23-4.47c0-.14-.14-.28-.21-.42.65-.29.41.31.46.51.45,1.79.87,3.55,2.24,4.93a5.37,5.37,0,0,0,6.83.83,5.31,5.31,0,0,0,2-6.59,11.84,11.84,0,0,0-4.57-5.13,68.33,68.33,0,0,1-9.67-7.86,12.32,12.32,0,0,1-3.62-5.43Z"/><path class="cls-2" d="M192.6,35c.36-1.06,1.23-1,1.92-.63,1.86.88,3.52,2.18,5.76,2.15.53,0,.7,1,1.4,1.27,3.43,1.54,6.79,3.21,10.19,4.81,2.75,1.29,5.45,2.67,8.18,4,1.57.76,3.18,1.5,4.77,2.24.46.21,1,.09.92-.4-.23-1.27.33-2.54-.16-3.79a1,1,0,0,0-.63-.68c-2.21-.74-4.06-2.49-6.28-2.86-1.46-.25-2.12-1.58-3.48-1.65a1.19,1.19,0,0,1-1.12-1v-.18c3.87,1.81,7.73,3.63,11.61,5.43a1,1,0,0,1,.63,1.07c0,1.42-.05,2.83,0,4.24,0,.95-.27.91-1,.57-5.06-2.42-10.13-4.8-15.19-7.2-4.88-2.31-9.77-4.61-14.62-7A3.41,3.41,0,0,0,192.6,35Z"/><path class="cls-2" d="M375.06,200.89c.68,1.62,2.1,2.85,2.44,4.64a1.24,1.24,0,0,0,1.4,1.12c1.78,0,3.57,0,5.36,0,.9,0,1.3-.35.81-1.22-.7-1.25-.54-2.77-1.25-4a4,4,0,0,0-.42-.76c-2.73-3.12-5.91-5.11-10.31-5.19a26.81,26.81,0,0,0-7.49,1.09c-1,.25-1.5,1-2.29,1.4a2.56,2.56,0,0,1-1.5.43,12.06,12.06,0,0,1,7.7-3.33c4.14-.36,8.14-.05,11.65,2.53a11.23,11.23,0,0,1,4.63,8.71c0,.7-.17.93-.89.91-2.28,0-4.57,0-6.85,0-.58,0-.85-.17-.9-.73a5,5,0,0,0-.2-.85c-.93-3.29-2.69-4.43-6.1-4-.37,0-.75.41-1.14.06a5.39,5.39,0,0,1,2.77-.49,7.09,7.09,0,0,0,2.59-.26Z"/><path class="cls-2" d="M208.59,116.42V116c4-1.94,7.93-3.89,11.93-5.79a1.5,1.5,0,0,0,1-1.58q-.06-6.56,0-13.1a1.65,1.65,0,0,0-1.07-1.71c-4.72-2.37-9.4-4.8-14.09-7.23a7.13,7.13,0,0,1-.81-.54,1,1,0,0,1,0-.17c1.94,0,3.23,1.6,5,2.17a10.1,10.1,0,0,0,1.62.59,1.47,1.47,0,0,1,.68.21c1.83,1.69,4.1,2.48,6.36,3.38a10.38,10.38,0,0,1,2.6,1.76c.56.46.25,1.34.26,2q0,6,0,12c0,1.86-.78,3-2.56,3.39a7.59,7.59,0,0,0-2.66,1.19c-2.06,1.34-4.51,1.83-6.49,3.3A5.14,5.14,0,0,1,208.59,116.42Z"/><path class="cls-2" d="M184.6,260.57a42.44,42.44,0,0,1-.21,5.68,4.91,4.91,0,0,1-7.52,3.64c-.53-.28-.56-.56-.37-1.08s.54-.37.85-.2a4.78,4.78,0,0,0,1.81.42c2.16.27,3.44-.78,3.7-3,.38-3.27.14-6.56.21-9.85,0-.45-.2-1,.65-1,.58,0,.92.08.9.8C184.57,257.4,184.6,258.9,184.6,260.57Z"/><path class="cls-2" d="M226.32,112.39l.23-.24c.38-.27.26-.68.27-1V94.69c0-.35.11-.76-.26-1a3.48,3.48,0,0,0-2.74-3.44,13.86,13.86,0,0,1-2.34-1.35c-1.86-.93-3.77-1.75-5.6-2.72-2-1.09-4-2.26-6-3.5a13,13,0,0,0-2.23-1c-3-1.23-5.55-3.4-8.59-4.48-1.63-.59-2.89-1.72-4.46-2.32a1.13,1.13,0,0,1-.74-.79,11.18,11.18,0,0,1,3.37,1.53c9.59,5,19.15,10,28.74,14.9a1.62,1.62,0,0,1,1,1.72c-.05,6.58,0,13.15,0,19.72,0,.41.3.94-.31,1.2C226.27,113,226.76,112.52,226.32,112.39Zm.44-20.48,0-.1s-.06.06-.07.09,0,.06.05.1Z"/><path class="cls-2" d="M88.78,262.72c0-2.25,0-4.5,0-6.75,0-.62.11-.88.81-.88s.79.34.79.92q0,6.69,0,13.37c0,.54,0,1-.74,1s-.84-.4-.84-1C88.79,267.14,88.78,264.93,88.78,262.72Z"/><path class="cls-2" d="M41.38,196.13l0-1H63.77c0,1.29,0,2.58.09,3.85,0,.79-.21,1-1,1-4,0-8,0-12-.06-1.14,0-1.36.34-1.35,1.4.05,4.11,0,8.22,0,12.33-.4.1,0,.77-.5.77-.09-4.27.28-8.56-.21-12.83-.14-1.25.38-2.17,1.22-2.17,4.15,0,8.3-.08,12.45,0,.74,0,.87-.29.81-.87,0-.33-.19-.65-.2-1,0-1.93-.15-2.11-2-2.11-6,0-12.08,0-18.12,0a1.35,1.35,0,0,0-1.43.76Z"/><path class="cls-2" d="M318.54,262.63c0-2.2,0-4.41,0-6.61,0-.56,0-.94.77-.93s.81.3.81.91q0,6.67,0,13.35c0,.61,0,1-.84,1s-.72-.47-.72-1C318.55,267.13,318.54,264.88,318.54,262.63Z"/><path class="cls-2" d="M162.84,63.16a1.09,1.09,0,0,1,1.29.51,2.47,2.47,0,0,0,2.14,1.25c.63,0,.91.63,1.41.91a25.07,25.07,0,0,0,3.75,1.84c.59.2,1.27.43,1.41,1.21l-.26,0c-3.69-1.9-7.37-3.8-11.07-5.67a.82.82,0,0,1-.48-.9q0-8.55,0-17.1a1,1,0,0,1,.67-1c1.43-.66,2.85-1.36,4.27-2h.38a12.68,12.68,0,0,1-3.28,2,2.94,2.94,0,0,0-1.71,3c0,4.37.06,8.75,0,13.12a3.25,3.25,0,0,0,1.53,2.9l-.11.05.05,0Z"/><path class="cls-2" d="M141.36,234.88l.29,0c-.7,1.75-2.18,2.81-3.57,3.91-2.52,2-5.44,3.37-8.11,5.13a.8.8,0,0,1-1-.06l-6.48-4h0a.22.22,0,0,1-.18-.13.39.39,0,0,0-.17-.14l-1.33-1a1.82,1.82,0,0,0-1.21-1,5.1,5.1,0,0,1-1.29-1.29,1.77,1.77,0,0,0,0-.23c.46-.7.77-.4,1.06.15a9.9,9.9,0,0,0,3.08,3c1.29,1,2.85,1.62,4.21,2.57s2.6,2,4.35.82c.45-.31.9-.47,1.17-1s.74-1.09,1.12-1.09c1.8,0,2.6-1.72,4.1-2.17.67-.2,1.07-.86,1.56-1.23C139.88,236.46,140.16,235.17,141.36,234.88Z"/><path class="cls-2" d="M374.57,243.15c.35.4.83.16,1.25.24-6,.93-11.55.22-15.62-5a15.63,15.63,0,0,1-2.87-8c-.07-.55,0-.84.68-.81,2.36.12,4.72-.16,7.06.23-.31.42-.75.27-1.15.27-1.63,0-3.25,0-4.87,0-.78,0-1,.27-1,1a11.3,11.3,0,0,0,1.84,5.46c.92,1.53,1.8,3,3.69,3.66.55.19.8,1,1.47,1.42,1.7,1,3.66.9,5.46,1.47a5.31,5.31,0,0,1,.55.23,2.27,2.27,0,0,0,2.24,0C373.67,243,374.14,243.19,374.57,243.15Z"/><path class="cls-2" d="M214.07,38.22v.18c-1.66-.18-3-1.12-4.48-1.81-2.07-1-4.11-2.06-6.24-2.87-.81-.31-1.58-.69-2.34-1.06-2-.95-4-2-6-3a2.59,2.59,0,0,0-2.5.1c-2.3,1.19-4.79,2-6.94,3.5a6.88,6.88,0,0,1-2.19.62,2.93,2.93,0,0,1,1.15-.9c2.82-1.35,5.62-2.73,8.43-4.11a1.43,1.43,0,0,1,1.39-.08q9.68,4.62,19.38,9.19A2.11,2.11,0,0,1,214.07,38.22Z"/><path class="cls-2" d="M172.58,68.91l.26,0c1.25-.26,2.08.36,3.08,1.08A27.44,27.44,0,0,0,182,73.19a41.53,41.53,0,0,1,4.77,2.58A39.7,39.7,0,0,0,193.35,79a11.36,11.36,0,0,1,2.86,1.68c1.76,1.29,4,1.75,5.63,3.22a1.7,1.7,0,0,1,0,.22q-9.95-5.13-19.9-10.27C178.8,72.22,175.7,70.55,172.58,68.91Z"/><path class="cls-2" d="M49.07,214.41c.55,0,.1-.67.5-.77,0,1,.34,1.31,1.38,1.28,3.11-.09,6.23,0,9.34-.06.9,0,1.18.26,1.09,1.13a26.9,26.9,0,0,0-.18,3.23c0,.82-.34.93-1.05.92-3,0-6,.05-9,0-1.27,0-1.76.32-1.55,1.57a1.73,1.73,0,0,1-.06.49l-.49,0c-.25-.15-.23-.31,0-.48.48-.34.21-.84.28-1.27.13-.77.64-1,1.35-1a43.68,43.68,0,0,1,4.72,0c1.58.2,3.11-.66,4.68-.1.11,0,.39-.09.4-.18.2-1,.63-2.08.17-3.12-.64.09-.35.86-1,1a1.77,1.77,0,0,0-.28-1.6,4.26,4.26,0,0,0,1.79-.27c-3.8,0-7.28,0-10.76,0-.18,0-.36.15-.54.23-.6.57-.4-.67-.84-.38-.64.42-1.06-.11-1-.48C48.12,214,48.71,214.54,49.07,214.41Z"/><path class="cls-2" d="M335.82,214.63l.55.28c3.57,0,7.15,0,10.72,0,.8,0,1.12.19,1.06,1a23.36,23.36,0,0,0,0,3.24c.05.79-.24,1-1,1-3.62,0-7.23,0-10.85,0l0,0c.06-.5.25-.79.81-.54a2.06,2.06,0,0,0,1.1.05,31.73,31.73,0,0,1,7.79,0c1.1.14,1.56-.16,1.59-1.24,0-.71,0-1.41,0-2.12a.74.74,0,0,0-.84-.84h-7.68a2.29,2.29,0,0,0-1.09.11C336.83,216.16,336.33,215.42,335.82,214.63Z"/><path class="cls-2" d="M25.72,240.52c-2.7,2.17-5.9,2.71-9.22,2.76-4.36.06-8.34-1-11.41-4.34a9.12,9.12,0,0,1-1.86-2.77l.4.21a1.66,1.66,0,0,1,.82.87,6.67,6.67,0,0,0,1.75,2.07,12.73,12.73,0,0,0,7.43,3.23c2.37.16,4.79.46,7.16-.34,1.63-.55,3.23-1.15,4.8-1.83Z"/><path class="cls-2" d="M97.09,196a8,8,0,0,1,5.94,8c0,3.53,0,7.06,0,10.59a7.44,7.44,0,0,1-1.49,4.76l-.45-.16a2.24,2.24,0,0,0,.75-1.1,19.94,19.94,0,0,0,.77-5.49c-.1-2.49-.06-5,0-7.47a12.45,12.45,0,0,0-.63-4c-.3-1-1.3-1.39-1.66-2.15-.7-1.45-2-1.87-3.22-2.52Z"/><path class="cls-2" d="M26.34,198.16v.25c-.78-.51-1.75-.71-2.48-1.2a10.85,10.85,0,0,0-5-2.06c-1.88-.19-3.75-.59-5.56.15-1.12.45-2.33,0-3.43.66-1.63.89-3.17,1.94-4.73,2.95L5,198.77a11.78,11.78,0,0,1,7.4-4c4.49-.62,8.9-.55,12.77,2.32C25.57,197.41,25.94,197.8,26.34,198.16Z"/><path class="cls-2" d="M41.38,196.13l.22,0c.31.25.24.59.22.92-.08,1.27-.22,2.53-.22,3.8q0,19.08,0,38.16a11.72,11.72,0,0,0,.25,3.34.63.63,0,0,0,0,1,.43.43,0,0,0,0,.16c-.6,0-.5-.42-.5-.79q0-23.21,0-46.4A1.11,1.11,0,0,1,41.38,196.13Z"/><path class="cls-2" d="M68.61,255.63q0,6.8-.07,13.59c0,.44.24,1.06-.59,1.11-.56,0-.94,0-.94-.77,0-4.57,0-9.14,0-13.72,0-1.14.87-.54,1.34-.74Zm-.52,7.14c0-2.07,0-4.15,0-6.23,0-.3.13-.77-.33-.81s-.41.42-.41.73V269c0,.31-.1.78.39.76s.35-.48.35-.79C68.1,266.92,68.09,264.85,68.09,262.77Z"/><path class="cls-2" d="M101.09,219.12l.45.16a7.89,7.89,0,0,1-4.14,3c-.41.16-.52.16-.33.72,1,2.86,1.84,5.76,2.74,8.65l-.47.44a2.65,2.65,0,0,1-.5-1.24c-.67-2-.91-4.14-1.9-6a3,3,0,0,1-.33-2.38,3.7,3.7,0,0,1,1.65-1.63C99.62,220.77,100.25,219.84,101.09,219.12Z"/><path class="cls-2" d="M124.55,231.47c-.42-.35-.2-.82-.2-1.23,0-11.19,0-22.37,0-33.56,0-1.32-.39-1.61-1.61-1.56-2.12.1-4.24,0-6.36,0a22.35,22.35,0,0,1,5-.18c3.14-.05,3.14,0,3.14,3.17Z"/><path class="cls-2" d="M166.33,42.18H166l16.37-8a1.64,1.64,0,0,1-.73.79A47.25,47.25,0,0,1,175,38.2a25.49,25.49,0,0,0-2.45,1.4A51.88,51.88,0,0,1,166.33,42.18Z"/><path class="cls-2" d="M49.56,237.64c-.11.94.49.94,1.17.94,4,0,8,0,11.94,0,1,0,1.26.29,1.19,1.24-.09,1.19,0,2.4,0,3.6h-.23c-.1-.2-.3-.23-.5-.25a8.38,8.38,0,0,0,.25-3.19c0-.42-.2-.84-.63-.73a10.07,10.07,0,0,1-2.33-.09c-3.23,0-6.46,0-9.69,0-.76,0-1.44,0-1.58-1Z"/><path class="cls-2" d="M116.34,196.28c0,11.21,0,22.42,0,33.64,0,.9.4,1.78.13,2.68a3.06,3.06,0,0,1-.19-1.47V196.89A4.22,4.22,0,0,1,116.34,196.28Z"/><path class="cls-2" d="M28.12,226.39a.67.67,0,0,0,.45-.65,10.73,10.73,0,0,1-.5,12.32l-.22-.18a3.05,3.05,0,0,1,.66-2c1.52-1.65,1.07-3.7,1.15-5.61C29.72,228.83,28.82,227.63,28.12,226.39Z"/><path class="cls-2" d="M226.32,112.39c.44.13,0,.62.3.78-2.73,1.64-5.69,2.83-8.52,4.27-.47.23-.91.61-1.5.51.16-.75.46-1.34,1.39-1.1a.85.85,0,0,0,.81-.21c1.08-1.19,2.78-1.23,4-2.13S225.28,113.33,226.32,112.39Z"/><path class="cls-2" d="M49.56,237.64l-.46.5q0-8,0-16l.49,0Q49.57,229.89,49.56,237.64Z"/><path class="cls-2" d="M358.58,205.66v.47a23.9,23.9,0,0,0,.25,4.47c-1.23-4.11-.58-9.66,3-12.22a10.93,10.93,0,0,1-1.73,2.62c-1,1.31-1.09,2.86-1.27,4.39Z"/><path class="cls-1" d="M63.77,195.15H41.41c.24-.37.6-.21.91-.21H62.86C63.17,195,63.53,194.81,63.77,195.15Z"/><path class="cls-2" d="M63.58,243.37h.23c-.19.41-.57.27-.87.27H42.42a4.25,4.25,0,0,1-.61-.08.43.43,0,0,1,0-.16Z"/><path class="cls-2" d="M129.84,236.91l1.38-1h.37c-.05.8-.84.81-1.29,1.18a1.44,1.44,0,0,1-2.41-.37c-.17-.24-.32-.57-.62-.53-1.67.22-1.51-1.05-1.69-2h.27l0,0,.2.21,0,0,.24.25h0a.72.72,0,0,0,.59.51l1.24,1h0l.22.21.09.06.39.27.35.27a.11.11,0,0,1,.16.06C129.54,237.17,129.7,237.15,129.84,236.91Z"/><path class="cls-2" d="M199.62,199.6a3.91,3.91,0,0,1,1.69,2.45,7,7,0,0,1,.82,3.06l-.08,0c-.14-.09-.34-.15-.39-.27-.71-1.74-1.4-3.48-2.09-5.23Z"/><path class="cls-2" d="M194,207.06a1.18,1.18,0,0,0,.07-.2l.47,0c.09.17.18.17.28,0l.21,0h2c1.48.52,3,.18,4.49.2.38,0,.51-.37.5-.74s0-.79,0-1.19l.08,0c.6.52.27,1.23.34,1.85,0,.37-.31.43-.62.43h-7.57A.26.26,0,0,1,194,207.06Z"/><path class="cls-2" d="M210.83,238.15l.24-.27c.44.63,1,1.19,1.42,1.8s1.59.9,1.6,2l-.45,0A6.55,6.55,0,0,1,210.83,238.15Z"/><path class="cls-2" d="M27.85,237.88l.22.18a7.5,7.5,0,0,1-1.88,2.05l-.36,0C26.1,239,27.07,238.53,27.85,237.88Z"/><path class="cls-2" d="M201.83,84.11a1.7,1.7,0,0,0,0-.22,4.9,4.9,0,0,1,3.51,1.76h-.51l-2.55-1.3-.23-.16A.29.29,0,0,1,201.83,84.11Z"/><path class="cls-1" d="M97.09,196v.41a8.94,8.94,0,0,1-3.25-.73c.34,0,.73.11,1-.24A8.05,8.05,0,0,1,97.09,196Z"/><path class="cls-2" d="M99.34,232.13l.47-.44a18.12,18.12,0,0,1,1,3.21l0,0a.65.65,0,0,0-.19,0c-.08-.73-1-1.13-.75-2,.17-.1.17-.19,0-.25Z"/><path class="cls-2" d="M358.82,210.6a23.9,23.9,0,0,1-.25-4.47l.75,5-.31,0Z"/><path class="cls-2" d="M211.59,120.43c.27-1.15,1.21-1,2-1A5,5,0,0,1,211.59,120.43Z"/><path class="cls-2" d="M190.1,36.2c.4-.89,1.22-.93,2-1C191.61,35.85,190.79,35.89,190.1,36.2Z"/><path class="cls-1" d="M94.83,195.41c-.26.35-.65.2-1,.24h-1c0-.18-.33-.44.14-.48A5,5,0,0,1,94.83,195.41Z"/><path class="cls-2" d="M215.09,118.69a1.4,1.4,0,0,1,1.53-.76A1.62,1.62,0,0,1,215.09,118.69Z"/><path class="cls-2" d="M133.1,234.22a1.28,1.28,0,0,1,0,.19,1.12,1.12,0,0,1-1,1,.52.52,0,0,0-.21,0l0,0Z"/><path class="cls-2" d="M125,232.78l.38.64.26.72h0c-1,0-.69-.72-.77-1.24Z"/><path class="cls-2" d="M119.63,237.63a1.82,1.82,0,0,1,1.21,1A3,3,0,0,1,119.63,237.63Z"/><path class="cls-2" d="M213.6,119.44c.06-.75.62-.5,1-.53A1.32,1.32,0,0,1,213.6,119.44Z"/><path class="cls-2" d="M210.84,120.86c0-.52.42-.46.77-.44C211.5,120.82,211.07,120.67,210.84,120.86Z"/><path class="cls-2" d="M204.84,85.65h.51c.09.08.17.17.25.25a1,1,0,0,0,0,.17Z"/><path class="cls-2" d="M125.59,234.14l-.26-.72.52.71Z"/><path class="cls-2" d="M100.82,234.9l.25.75h0l-.44-.29a1.62,1.62,0,0,1,0-.22l.18-.22Z"/><path class="cls-2" d="M131.59,235.9h-.37l.63-.5,0,0a.64.64,0,0,0,0,.2h0l-.25.24Z"/><path class="cls-2" d="M126.94,235.15a.72.72,0,0,1-.59-.51C126.64,234.7,126.78,234.93,126.94,235.15Z"/><path class="cls-2" d="M189.6,36.46c.08-.27.29-.3.52-.28C190.08,36.52,189.8,36.41,189.6,36.46Z"/><path class="cls-2" d="M25.83,240.13l.36,0-.47.41-.13-.14Z"/><path class="cls-2" d="M192.1,35.21c.07-.28.28-.3.52-.28C192.59,35.29,192.3,35.18,192.1,35.21Z"/><path class="cls-2" d="M117.18,234.64l.17.34Z"/><path class="cls-2" d="M117.62,235.39l.24.35A.34.34,0,0,1,117.62,235.39Z"/><path class="cls-2" d="M129.84,236.91c-.14.24-.3.26-.49.07Z"/><path class="cls-2" d="M214.82,118.88l.3-.22C215.07,118.8,215.05,119,214.82,118.88Z"/><path class="cls-2" d="M129.19,236.92l-.35-.27A.35.35,0,0,1,129.19,236.92Z"/><path class="cls-2" d="M128.14,236.11h0Z"/><path class="cls-2" d="M122.52,239.9h0Z"/><path class="cls-2" d="M118,235.87h.09c0,.07,0,.14.08.22h0Z"/><path class="cls-2" d="M126.07,234.36l-.2-.21Z"/><path class="cls-2" d="M126.34,234.63l-.24-.25Z"/><path class="cls-2" d="M118.33,236.11a1.77,1.77,0,0,1,0,.23l-.21-.24h0A.62.62,0,0,0,118.33,236.11Z"/><polygon class="cls-1" points="116.34 195.4 116.35 195.5 116.3 195.47 116.34 195.4"/><path class="cls-2" d="M117.08,234.52l0,0Z"/><polygon class="cls-2" points="128.45 236.38 128.36 236.32 128.43 236.31 128.45 236.38"/><path class="cls-2" d="M28.51,225.65l-.15-.28Z"/><path class="cls-2" d="M122.17,239.63a.39.39,0,0,1,.17.14Z"/><path class="cls-2" d="M202.06,84.19l.23.16Z"/><path class="cls-2" d="M226.56,93.66c.37.27.25.68.26,1v16.43c0,.35.11.76-.27,1Q226.57,102.9,226.56,93.66Z"/><path class="cls-2" d="M373.31,243.38a2.27,2.27,0,0,1-2.24,0Z"/><path class="cls-2" d="M358.58,205.66l.23-.27Z"/><path class="cls-2" d="M375.07,200.89l.05-.1-.06.1Z"/><path class="cls-2" d="M195.82,206.89h-.48c-.09-.16-.18-.16-.28,0l-.21,0h-.28l-.47,0c.27-2.64-1.26-4.36-3.12-5.83-1.15-.91-4.43,0-5.74,1.35-1.84,1.93-2,4.19-1.49,6.65a2.79,2.79,0,0,1,.08.86A2,2,0,0,0,185,212c1.51.7,2.15,2.09,3.08,3.26.17.23.35.54.59.61a10.9,10.9,0,0,1,5.55,3.92,1,1,0,0,0,.52.34c1.32.32,1.2,2.57,3,2.24.46,1.76,2.3,2.51,3,4.29.47,1.29,1.37,2.45,1.49,3.92a11.22,11.22,0,0,1-.6,5.59,10.6,10.6,0,0,1-3.22,4.32,2.7,2.7,0,0,1-1.78.45c-.06-.08.11-.33-.18-.26l.18.26c-.13.87-.82,1.24-1.51,1.49a11.1,11.1,0,0,1-6.42.81c-1.67-.38-3.43,0-5.12-.54a4.52,4.52,0,0,1-2.36-1.36c-.72-.83-2.23-.9-2.75-2s-1.75-1.46-1.64-2.76a.41.41,0,0,0-.13-.32c-2.16-1.25-.92-3.52-1.54-5.23-.16-.45.29-.61.71-.61,1.84,0,3.67,0,5.5,0,.62,0,.81.3.77.85a6.14,6.14,0,0,0,2,4.71,6.34,6.34,0,0,0,8.3.58,16.14,16.14,0,0,0,2.12-2.84c.43-.55-.33-.9-.21-1.47a4.54,4.54,0,0,0-1.2-4.15,19.23,19.23,0,0,0-3-3c-1-.69-2.34-1-2.53-2.55a.32.32,0,0,0-.26-.17c-1.2.14-1.51-.63-1.57-1.59,0-.57-.33-.43-.67-.36a1.18,1.18,0,0,1-1.24-.41c-1-1.32-2.52-2.14-3.67-3.37-2.09-2.23-4-4.42-4.43-7.64a14.25,14.25,0,0,1,.49-6.37,9,9,0,0,1,2.35-3.15,11.1,11.1,0,0,1,8.25-3.7c3.17.07,6.5-.14,9.39,1.77.69.45,1.63.4,1.85,1.55.09.49,1,.53,1.54.6.69,1.75,1.38,3.49,2.09,5.23.05.12.25.18.39.27,0,.4,0,.8,0,1.2-.68-.05-1.13.68-1.86.52a6.89,6.89,0,0,0-3.13,0h-.73C196.17,206.65,196,206.65,195.82,206.89Z"/><path class="cls-2" d="M257.69,233.21a2.53,2.53,0,0,0-.37,1.54q0,3.13,0,6.25c0,2.13-.15,2.12-2.27,2-1.26-.08-2.56.14-3.84.17-.75,0-1.19-.17-1.24-1,0-.46-.13-.91-.13-1.36q0-18.67,0-37.36a7,7,0,0,1,2.45-5.22,12.2,12.2,0,0,1,7.85-3.11c.12,0,.25,0,.37,0,4.09-.6,7.78.39,11.5,2.21s3.94,4.73,3.86,8.08c0,1,.2,2.07.2,3.1q0,15.06,0,30.11c0,1.16-.16,2.32-.23,3.47a.84.84,0,0,1-.76.83,24.72,24.72,0,0,1-5.23.22c-.77,0-1-.46-1-1.24,0-2.62,0-5.24,0-7.87,0-1.17-.4-1.66-1.6-1.64-2.79,0-5.58,0-8.37,0-.42,0-1-.2-1.05.53C257.78,233,257.73,233.12,257.69,233.21Zm8.13-33.82c-.5-.4-1,.1-1.52,0-1.54-1-3-.35-4.49.2a4.14,4.14,0,0,0-2.73,3.93,31.49,31.49,0,0,0,.24,3.22q0,8.75,0,17.49c0,.36.1.75-.16,1.08-.92,1.21-.22,2,.65,2.82l0,0c0,.21,0,.41.32.42l9.07.08c.33,0,.56-.12.58-.48a.24.24,0,0,1,.2-.05c.69-.38.55-1,.55-1.66,0-7.23,0-14.46,0-21.7a6.68,6.68,0,0,0-1-4.1c-.06-.1.13-.46-.25-.25s-.51-.32-.77,0l-.24-.18,0-.3C266.71,199.19,266.08,199.48,265.82,199.39Z"/><path class="cls-2" d="M306.07,215.14c0-5.37.05-10.74,0-16.11,0-.91.81-1.74.15-2.69-.11-.16.23-.37.52-.37,1.9,0,3.81-.08,5.71-.05.52,0,1.38-.13.78,1-.23.44.68.93.67,1.7-.05,10.41,0,20.82-.05,31.22a12.4,12.4,0,0,1-1.42,6.15c-.32.58.23,1.13-.17,1.51-1.11,1.08-1,3.34-3.29,3.29-.12,0-.25.19-.35.31a6.59,6.59,0,0,1-4.85,2.18c-2.3.18-4.59.76-6.89-.1-1.29-.49-2.63-.89-3.94-1.33-.08,0-.19,0-.23-.08-1.05-1.41-2.86-1.88-3.93-3.3a13.54,13.54,0,0,1-2.33-4.89c-.18-.7.56-1.45-.2-2.13-.19-.17.25-.33.49-.33,2.25,0,4.5,0,6.74,0a1.38,1.38,0,0,1,1.39,1.35c.26,2.66,1.26,3.68,3.95,4.09.65.1,1.31.2,2,.25,3,.24,5.3-2,5.32-5.37C306.09,226,306.07,220.59,306.07,215.14Z"/><path class="cls-2" d="M335.82,214.63c.51.79,1,1.53,2.14.87a2.29,2.29,0,0,1,1.09-.11h7.68a.74.74,0,0,1,.84.84c0,.71,0,1.41,0,2.12,0,1.08-.49,1.38-1.59,1.24a31.73,31.73,0,0,0-7.79,0,2.06,2.06,0,0,1-1.1-.05c-.56-.25-.75,0-.81.54a.93.93,0,0,0-.65,1c.46,5.44.08,10.89.19,16.33,0,1.72.63,2.17,2.26,1.65a4.11,4.11,0,0,1,1.11-.13h9.24c1.44,0,1.63.21,1.65,1.68,0,.3,0,.59,0,.88,0,1.39-.34,1.69-1.69,1.7-5.79,0-11.58.06-17.36,0-2.77,0-2.72-.31-2.72-2.65q0-20.49,0-41a22.31,22.31,0,0,1,.29-3c.14-1.12,1.09-1.14,1.92-1.14,3.33,0,6.66,0,10,0,2.63,0,5.25,0,7.87,0,1.05,0,1.48.26,1.48,1.4,0,3.26.49,2.85-2.91,2.88h-7.62a3.66,3.66,0,0,1-1.46-.22,1.54,1.54,0,0,0-2.27,1.71,90.84,90.84,0,0,1,.09,13.3C335.67,214.5,335.77,214.57,335.82,214.63Z"/><path class="cls-2" d="M214.09,241.64c0-1.06-1.11-1.25-1.6-2s-1-1.17-1.42-1.8c-.08-.42-.15-.83-.23-1.25.76-.27.73-.95.73-1.54q0-18,0-36c0-.41.1-.88-.51-1,0-2.48,0-2.48,2.5-2.49,1,0,2,0,3,0,.77,0,1.21.15,1.31,1.06a20.5,20.5,0,0,1,.2,2.35q0,18.3,0,36.6c0,1.65.4,2.28,1.74,2.76,0,.16,0,.32,0,.48a1.24,1.24,0,0,0,1.2.49l.5,0c.08.14.17.14.25,0l1,.22h.24a4.85,4.85,0,0,1,2.08-.05c1.56.3,2.32-.94,3-2a10.92,10.92,0,0,0,1.24-2.71c.25-.74-.38-1.41-.37-2.22.06-6.61,0-13.23,0-19.85V197.43c0-2,0-2,2-2a21.31,21.31,0,0,1,4.22.23c.39.08.73.08.77.6.06.86.24,1.73.24,2.59,0,11.7,0,23.39,0,35.09a9.92,9.92,0,0,1-.69,4.5,6.23,6.23,0,0,1-2.53,2.48l-.1-.06.1.06c-.45,1.27-1.67,1.51-2.7,1.69a35.46,35.46,0,0,0-4,.57c-3,.87-5.9,0-8.82-.3C216.37,242.73,215.36,241.77,214.09,241.64Z"/><path class="cls-2" d="M221.08,239.37a1.24,1.24,0,0,1-1.2-.49C220.3,239,220.93,238.61,221.08,239.37Z"/><path class="cls-2" d="M223.07,239.61h-.24Q223,239.41,223.07,239.61Z"/><path class="cls-2" d="M221.83,239.39c-.08.14-.17.14-.25,0Z"/><path class="cls-2" d="M100.6,235.15a1.62,1.62,0,0,0,0,.22c-.24.18-.25.35,0,.52-.17.6.34,1,.49,1.48.43,1.49.81,3,1.31,4.48.28.83-.16,1.11-.77,1.22a18.75,18.75,0,0,1-5.44-.28c-.81-.1-1.1-1.21-1-2a1.81,1.81,0,0,0-.41-1.36,8.75,8.75,0,0,1-1.22-3.23c-.69-2.58-1.62-5.08-2.32-7.67a25.71,25.71,0,0,0-2.28-5.42c-.07-.14-.26-.36-.32-.34-1.13.41-2.33-.37-3.39.07-.91.38-1.07,1.33-1,2.29.34,5.31.11,10.63.12,15.95,0,1.67-.26,1.7-1.88,1.9-1.32.16-2.64.17-4,.22a2.13,2.13,0,0,1-1.61-.52,5.12,5.12,0,0,0,.24-1.74c.39-.38.23-.86.23-1.3q0-20,0-40.09a13.47,13.47,0,0,0-.27-2.84c-.25-1.21.44-1.27,1.28-1.26H89.58l2.24,0c.32.2.58.63,1,.22h1a8.94,8.94,0,0,0,3.25.73c1.22.65,2.52,1.07,3.22,2.52.36.76,1.36,1.14,1.66,2.15a12.45,12.45,0,0,1,.63,4c0,2.49-.09,5,0,7.47a19.94,19.94,0,0,1-.77,5.49,2.24,2.24,0,0,1-.75,1.1c-.84.72-1.47,1.65-2.83,1.73a3.7,3.7,0,0,0-1.65,1.63,3,3,0,0,0,.33,2.38c1,1.89,1.23,4,1.9,6a2.65,2.65,0,0,0,.5,1.24l.47.52,0,.25c-.28.86.67,1.26.75,2Zm-15.75-16.8,0,0a.46.46,0,0,0,.41.52,11.69,11.69,0,0,0,2,.26c1,0,2.11-.35,3,.61a.84.84,0,0,0,1.33-.65c.09-.54.47-.66.91-.84.81-.33,1.77-.48,2.12-1.5a8.78,8.78,0,0,0,.71-3c0-4.06,0-8.12,0-12.17a2,2,0,0,0-.21-.69c-.31-.93-1.24-.42-1.67-.75a4.64,4.64,0,0,0-3-.75c-1.37,0-2.82.26-4.09-.11s-1.38.25-1.79.85a2.55,2.55,0,0,0-.43,1.41c0,5.32,0,10.65,0,16C84.1,218.08,84.19,218.46,84.85,218.35Z"/><path class="cls-2" d="M77.1,240.89a5.12,5.12,0,0,1-.24,1.74c-.37-.27-.25-.68-.25-1q0-22.11,0-44.22a.6.6,0,0,1,.2-.48C77.26,211.56,77,226.23,77.1,240.89Z"/><path class="cls-1" d="M91.82,195.43l-2.24,0A2.15,2.15,0,0,1,91.82,195.43Z"/><path class="cls-2" d="M100.6,235.89c-.26-.17-.25-.34,0-.52l.44.29C101,235.88,100.78,235.88,100.6,235.89Z"/><path class="cls-2" d="M118.33,236.11a.62.62,0,0,1-.19,0c0-.08,0-.15-.08-.22a2.78,2.78,0,0,0-.84-2.47c-.6-.65-.37-1.68-.38-2.55q0-13,0-26c0-2.87,0-5.74-.07-8.61,0-.65.29-.38.75-.48,1.7-.33,3.38,0,5-.17,1.07-.12,1.31.33,1.31,1.34,0,10.07,0,20.14-.05,30.21,0,1.66.26,3.3.26,5,0,.53.21.78.73.77.08.52-.21,1.27.77,1.24.18,1,0,2.25,1.69,2,.3,0,.45.29.62.53a1.44,1.44,0,0,0,2.41.37c.45-.37,1.24-.38,1.29-1.18h0l.25-.24h0l.24-.24a1.12,1.12,0,0,0,1-1,3.12,3.12,0,0,0,2-2.55,15.79,15.79,0,0,0-.06-3.44c0-9.75,0-19.49,0-29.24,0-1,.17-2,.24-3,0-.52.38-.57.78-.57h5a.85.85,0,0,1,1,1c0,.5,0,1,0,1.5q0,15.18,0,30.36a17.37,17.37,0,0,1,.08,3.82c-.2.9-.54,1.72-.8,2.57-1.2.29-1.48,1.58-2.38,2.25-.49.37-.89,1-1.56,1.23-1.5.45-2.3,2.2-4.1,2.17-.38,0-.9.64-1.12,1.09s-.72.72-1.17,1c-1.75,1.19-3,.07-4.35-.82s-2.92-1.57-4.21-2.57a9.9,9.9,0,0,1-3.08-3C119.1,235.71,118.79,235.41,118.33,236.11Z"/><path class="cls-2" d="M211.07,198.13c.61.09.51.56.51,1q0,18,0,36c0,.59,0,1.27-.73,1.54q0-18.72,0-37.44C210.83,198.82,210.74,198.43,211.07,198.13Z"/><path class="cls-2" d="M163.33,220.14c0,7.08,0,14.16,0,21.24,0,1-.23,1.43-1.32,1.61a21.17,21.17,0,0,1-5.57-.13c-.45-.05-.61-.38-.62-.8s0-.75,0-1.13q0-20.3,0-40.6c0-1.38.24-2.73.28-4.09,0-.42.15-.84.6-.8,1.77.15,3.54-.28,5.31.12a1.26,1.26,0,0,1,1.11,1.24,60.12,60.12,0,0,1,.21,8.59C163.37,210.31,163.33,215.22,163.33,220.14Z"/><path class="cls-2" d="M5.1,199.15a1.94,1.94,0,0,0,0-.24c1.56-1,3.1-2.06,4.73-2.95,1.1-.61,2.31-.21,3.43-.66,1.81-.74,3.68-.34,5.56-.15a10.85,10.85,0,0,1,5,2.06c.73.49,1.7.69,2.48,1.2a1.24,1.24,0,0,0,.71,1.21,3,3,0,0,1,1.24,1.94,12.37,12.37,0,0,0,.95,3.41.93.93,0,0,1-.18,1.25c-.47.34-.88,0-1.18-.32s-.71-.8-1.09,0c-.16.33-.49.27-.77.28h-1.5a10.89,10.89,0,0,1-2.36-.07c-1-.26-.53-1.36-.82-2a5.57,5.57,0,0,0-9-2.17,6.51,6.51,0,0,0-1,7.15c.58,1,.64,2.32,1.73,3.07a8.21,8.21,0,0,1,2.23,1.71c1.2,1.72,3.21,2.31,4.65,3.61s3.14,2.28,4.26,3.9c.45.66,1.19,1,1.74,1.63,1,1.05,1.14,2.51,2.16,3.45.7,1.24,1.6,2.44,1.54,3.92-.08,1.91.37,4-1.15,5.61a3.05,3.05,0,0,0-.66,2c-.78.65-1.75,1.13-2,2.25l-.24.25c-1.57.68-3.17,1.28-4.8,1.83-2.37.8-4.79.5-7.16.34a12.73,12.73,0,0,1-7.43-3.23,6.67,6.67,0,0,1-1.75-2.07,1.66,1.66,0,0,0-.82-.87c-.59-1.43-.54-3-1.39-4.43-.73-1.2-.08-2.06,1.35-2.07H7.94c.4,0,.84.12,1.18-.24h.45a7.43,7.43,0,0,0,2.24,5.76,6,6,0,0,0,6.27,1.68,2,2,0,0,0,.69-.51c.69-.74,1.37-1.4,2.43-.56a.36.36,0,0,0,.54-.09.52.52,0,0,0-.07-.69c-.64-.48-.53-1.09-.31-1.69,1-2.55.8-4.82-1.46-6.68-.28-.24-.89-.65-.31-1.31.33-.39.07-.79-.45-.91-1.36-.32-2.83-.44-3.43-2.07-.07-.2-.59-.22-.9-.33-.61-.23-1.34-.33-1-1.33.14-.47-.28-.54-.63-.51-.87.07-1.34-.39-2-.95-1.1-1-2.19-2-3.25-3a6.49,6.49,0,0,1-2-2.44c-.59-1.79-2.4-2.83-2.72-4.85a18.64,18.64,0,0,1,0-6.28c.17-.9,1.28-1.65,1.14-2.87C4.32,199.74,5.09,199.66,5.1,199.15Z"/><path class="cls-2" d="M226.76,91.91l-.07.09s-.05-.07-.05-.1.05-.06.07-.09Z"/><path class="cls-2" d="M49.08,222.12q0,8,0,16c.14,1,.82,1,1.58,1,3.23,0,6.46,0,9.69,0a10.07,10.07,0,0,0,2.33.09c.43-.11.65.31.63.73a8.38,8.38,0,0,1-.25,3.19H43.27c-.6,0-1.32.17-1.43-.76a11.72,11.72,0,0,1-.25-3.34q0-19.08,0-38.16c0-1.27.14-2.53.22-3.8,0-.33.09-.67-.22-.92a1.35,1.35,0,0,1,1.43-.76c6,0,12.08,0,18.12,0,1.84,0,2,.18,2,2.11,0,.32.17.64.2,1,.06.58-.07.88-.81.87-4.15,0-8.3,0-12.45,0-.84,0-1.36.92-1.22,2.17.49,4.27.12,8.56.21,12.83-.36.13-1-.43-1,.12-.08.37.34.9,1,.48.44-.29.24,1,.84.38l9.51,0a1.77,1.77,0,0,1,.28,1.6c.69-.12.4-.89,1-1,.46,1,0,2.08-.17,3.12,0,.09-.29.21-.4.18-1.57-.56-3.1.3-4.68.1a43.68,43.68,0,0,0-4.72,0c-.71,0-1.22.2-1.35,1-.43.36-.19.85-.28,1.27C48.85,221.81,48.83,222,49.08,222.12Z"/><polygon class="cls-2" points="162.84 63.16 162.78 63.26 162.73 63.21 162.84 63.16"/><path class="cls-2" d="M59.35,215.42l-9.51,0c.18-.08.36-.23.54-.23,3.48,0,7,0,10.76,0A4.26,4.26,0,0,1,59.35,215.42Z"/><path class="cls-2" d="M49.07,221.64c.09-.42-.15-.91.28-1.27C49.28,220.8,49.55,221.3,49.07,221.64Z"/><path class="cls-2" d="M41.84,242.37c.11.93.83.76,1.43.76H63.08c.2,0,.4,0,.5.25l-21.72,0A.63.63,0,0,1,41.84,242.37Z"/><path class="cls-2" d="M68.09,262.77c0,2.08,0,4.15,0,6.23,0,.31.11.78-.35.79s-.39-.45-.39-.76V256.46c0-.31-.09-.78.41-.73s.33.51.33.81C68.1,258.62,68.09,260.7,68.09,262.77Z"/><path class="cls-2" d="M197.07,206.89a6.89,6.89,0,0,1,3.13,0c.73.16,1.18-.57,1.86-.52,0,.36-.12.73-.5.73C200.06,207.07,198.55,207.41,197.07,206.89Z"/><path class="cls-2" d="M195.82,206.89c.18-.24.35-.24.52,0Z"/><path class="cls-2" d="M195.06,206.88c.1-.15.19-.15.28,0Z"/><path class="cls-2" d="M194.57,206.9h.28C194.75,207.07,194.66,207.07,194.57,206.9Z"/><path class="cls-2" d="M100.6,235.15v-.26a.65.65,0,0,1,.19,0Z"/><path class="cls-2" d="M99.84,232.9l0-.25C100,232.71,100,232.8,99.84,232.9Z"/><path class="cls-2" d="M132.09,235.4l-.24.24a.64.64,0,0,1,0-.2A.52.52,0,0,1,132.09,235.4Z"/><path class="cls-2" d="M131.84,235.65l-.25.24Z"/><path class="cls-2" d="M196.58,240.89l-.18-.26c.29-.07.12.18.18.26Z"/><path class="cls-2" d="M263.79,199.41a20.71,20.71,0,0,0-2.23.16c-2.73.5-3.8,1.74-3.82,4.49,0,4.12,0,8.23,0,12.34,0,3.91.06,7.81.09,11.71-.88-.79-1.58-1.61-.66-2.82.26-.33.16-.72.16-1.08q0-8.75,0-17.49a31.49,31.49,0,0,1-.24-3.22,4.14,4.14,0,0,1,2.73-3.93c1.48-.55,2.95-1.21,4.49-.2Z"/><path class="cls-2" d="M268,228.1q0-12.34,0-24.69a3.83,3.83,0,0,0-1.5-3c.26-.32.51.08.77,0l.25.25a6.68,6.68,0,0,1,1,4.1c-.06,7.24,0,14.47,0,21.7C268.57,227.05,268.71,227.72,268,228.1Z"/><path class="cls-2" d="M257.85,228.13l10,0c0,.36-.25.49-.58.48l-9.07-.08C257.88,228.54,257.87,228.34,257.85,228.13Z"/><path class="cls-2" d="M263.79,199.41l.51,0c.51.12,1-.38,1.52,0a.91.91,0,0,0,.53.52c0,.1,0,.2,0,.3Z"/><path class="cls-2" d="M266.35,199.91a.91.91,0,0,1-.53-.52C266.08,199.48,266.71,199.19,266.35,199.91Z"/><path class="cls-2" d="M267.57,200.64l-.25-.25C267.7,200.18,267.51,200.54,267.57,200.64Z"/><path class="cls-2" d="M233.08,240.89l-.1-.06.1.06Z"/><path class="cls-2" d="M84.85,218.35c-.66.11-.75-.27-.75-.81,0-5.33,0-10.66,0-16a2.55,2.55,0,0,1,.43-1.41c.41-.6.66-1.18,1.79-.85s2.72.07,4.09.11a4.64,4.64,0,0,1,3,.75c.43.33,1.36-.18,1.67.75a2,2,0,0,1,.21.69c0,4.05,0,8.11,0,12.17a8.78,8.78,0,0,1-.71,3c-.35,1-1.31,1.17-2.12,1.5-.44.18-.82.3-.91.84a.84.84,0,0,1-1.33.65c-.93-1-2-.56-3-.61a11.69,11.69,0,0,1-2-.26.46.46,0,0,1-.41-.52c1.71,0,3.41,0,5.12,0,2.68-.06,4.46-1.3,4.63-3.58a73.88,73.88,0,0,0,0-11.33,3.61,3.61,0,0,0-3.23-3.3,40.82,40.82,0,0,0-5.85-.2c-.63,0-.77.28-.77.82Q84.83,209.57,84.85,218.35Z"/></g></g></svg>